<svg xmlns="http://www.w3.org/2000/svg" xmlns:xlink="http://www.w3.org/1999/xlink" width="140" zoomAndPan="magnify" viewBox="0 0 104.88 30.000001" height="40" preserveAspectRatio="xMidYMid meet" version="1.0"><defs><g></g><clipPath id="e347d64bbc"><path d="M 3.578125 13.9375 L 13.949219 13.9375 L 13.949219 24.308594 L 3.578125 24.308594 Z M 3.578125 13.9375 " clip-rule="nonzero"></path></clipPath><clipPath id="e1d3448974"><path d="M 13.949219 24.308594 C 11.21875 24.308594 8.546875 23.203125 6.613281 21.273438 C 4.683594 19.339844 3.578125 16.667969 3.578125 13.9375 L 8.867188 13.9375 C 8.867188 15.273438 9.410156 16.582031 10.355469 17.527344 C 11.304688 18.476562 12.613281 19.019531 13.949219 19.019531 Z M 13.949219 24.308594 " clip-rule="nonzero"></path></clipPath><clipPath id="90fb8e8257"><path d="M 0.578125 0.9375 L 10.949219 0.9375 L 10.949219 11.308594 L 0.578125 11.308594 Z M 0.578125 0.9375 " clip-rule="nonzero"></path></clipPath><clipPath id="d6a724b4be"><path d="M 10.949219 11.308594 C 8.21875 11.308594 5.546875 10.203125 3.613281 8.273438 C 1.683594 6.339844 0.578125 3.667969 0.578125 0.9375 L 5.867188 0.9375 C 5.867188 2.273438 6.410156 3.582031 7.355469 4.527344 C 8.304688 5.476562 9.613281 6.019531 10.949219 6.019531 Z M 10.949219 11.308594 " clip-rule="nonzero"></path></clipPath><clipPath id="b8f1fe8a4e"><rect x="0" width="11" y="0" height="12"></rect></clipPath><clipPath id="11e7e77259"><path d="M 3.578125 2.84375 L 13.949219 2.84375 L 13.949219 13.21875 L 3.578125 13.21875 Z M 3.578125 2.84375 " clip-rule="nonzero"></path></clipPath><clipPath id="d482dbc449"><path d="M 3.578125 13.21875 C 3.578125 10.488281 4.683594 7.816406 6.613281 5.882812 C 8.546875 3.953125 11.21875 2.84375 13.949219 2.84375 L 13.949219 8.136719 C 12.613281 8.136719 11.304688 8.679688 10.355469 9.625 C 9.410156 10.570312 8.867188 11.878906 8.867188 13.21875 Z M 3.578125 13.21875 " clip-rule="nonzero"></path></clipPath><clipPath id="d6c2ae6e89"><path d="M 0.578125 0.84375 L 10.949219 0.84375 L 10.949219 11.21875 L 0.578125 11.21875 Z M 0.578125 0.84375 " clip-rule="nonzero"></path></clipPath><clipPath id="69651f35db"><path d="M 0.578125 11.21875 C 0.578125 8.488281 1.683594 5.816406 3.613281 3.882812 C 5.546875 1.953125 8.21875 0.84375 10.949219 0.84375 L 10.949219 6.136719 C 9.613281 6.136719 8.304688 6.679688 7.355469 7.625 C 6.410156 8.570312 5.867188 9.878906 5.867188 11.21875 Z M 0.578125 11.21875 " clip-rule="nonzero"></path></clipPath><clipPath id="4fb03c313d"><rect x="0" width="11" y="0" height="12"></rect></clipPath><clipPath id="d0baf6a24b"><path d="M 10.605469 10.609375 L 17.273438 10.609375 L 17.273438 17.277344 L 10.605469 17.277344 Z M 10.605469 10.609375 " clip-rule="nonzero"></path></clipPath><clipPath id="b70e91a847"><path d="M 17.273438 13.945312 C 17.273438 12.101562 15.78125 10.609375 13.941406 10.609375 C 12.097656 10.609375 10.605469 12.101562 10.605469 13.945312 C 10.605469 15.785156 12.097656 17.277344 13.941406 17.277344 C 15.78125 17.277344 17.273438 15.785156 17.273438 13.945312 Z M 17.273438 13.945312 " clip-rule="nonzero"></path></clipPath><clipPath id="9dd7a59be8"><path d="M 0.605469 0.609375 L 7.273438 0.609375 L 7.273438 7.277344 L 0.605469 7.277344 Z M 0.605469 0.609375 " clip-rule="nonzero"></path></clipPath><clipPath id="82ad65e7b7"><path d="M 7.273438 3.945312 C 7.273438 2.101562 5.78125 0.609375 3.941406 0.609375 C 2.097656 0.609375 0.605469 2.101562 0.605469 3.945312 C 0.605469 5.785156 2.097656 7.277344 3.941406 7.277344 C 5.78125 7.277344 7.273438 5.785156 7.273438 3.945312 Z M 7.273438 3.945312 " clip-rule="nonzero"></path></clipPath><clipPath id="f65c719590"><rect x="0" width="8" y="0" height="8"></rect></clipPath><clipPath id="8e8dc2874e"><rect x="0" width="62" y="0" height="23"></rect></clipPath><clipPath id="6a0b9cff30"><path d="M 77 4 L 103.128906 4 L 103.128906 24 L 77 24 Z M 77 4 " clip-rule="nonzero"></path></clipPath><clipPath id="c00f4d6451"><path d="M 19 4 L 26.128906 4 L 26.128906 16 L 19 16 Z M 19 4 " clip-rule="nonzero"></path></clipPath><clipPath id="2182618d40"><rect x="0" width="27" y="0" height="20"></rect></clipPath><clipPath id="286a74769c"><path d="M 1 1 L 20.738281 1 L 20.738281 4 L 1 4 Z M 1 1 " clip-rule="nonzero"></path></clipPath><clipPath id="e907e76b54"><rect x="0" width="21" y="0" height="5"></rect></clipPath></defs><g clip-path="url(#e347d64bbc)"><g clip-path="url(#e1d3448974)"><g transform="matrix(1, 0, 0, 1, 3, 13)"><g clip-path="url(#b8f1fe8a4e)"><g clip-path="url(#90fb8e8257)"><g clip-path="url(#d6a724b4be)"><path fill="#08a3f9" d="M 0.578125 11.308594 L 0.578125 0.9375 L 10.949219 0.9375 L 10.949219 11.308594 Z M 0.578125 11.308594 " fill-opacity="1" fill-rule="nonzero"></path></g></g></g></g></g></g><g clip-path="url(#11e7e77259)"><g clip-path="url(#d482dbc449)"><g transform="matrix(1, 0, 0, 1, 3, 2)"><g clip-path="url(#4fb03c313d)"><g clip-path="url(#d6c2ae6e89)"><g clip-path="url(#69651f35db)"><path fill="#08a3f9" d="M 0.578125 0.84375 L 10.949219 0.84375 L 10.949219 11.21875 L 0.578125 11.21875 Z M 0.578125 0.84375 " fill-opacity="1" fill-rule="nonzero"></path></g></g></g></g></g></g><g clip-path="url(#d0baf6a24b)"><g clip-path="url(#b70e91a847)"><g transform="matrix(1, 0, 0, 1, 10, 10)"><g clip-path="url(#f65c719590)"><g clip-path="url(#9dd7a59be8)"><g clip-path="url(#82ad65e7b7)"><path fill="#08a3f9" d="M 7.273438 0.609375 L 7.273438 7.277344 L 0.605469 7.277344 L 0.605469 0.609375 Z M 7.273438 0.609375 " fill-opacity="1" fill-rule="nonzero"></path></g></g></g></g></g></g><g transform="matrix(1, 0, 0, 1, 17, 1)"><g clip-path="url(#8e8dc2874e)"><g fill="#000000" fill-opacity="1"><g transform="translate(1.101039, 17.033069)"><g><path d="M 3.484375 0 L 1.453125 0 L 1.453125 -11.203125 L 4.34375 -11.203125 L 7.1875 -2.96875 L 7.34375 -2.96875 L 10.171875 -11.203125 L 12.984375 -11.203125 L 12.984375 0 L 10.890625 0 L 10.890625 -7.40625 L 10.703125 -7.4375 L 8.109375 0 L 6.265625 0 L 3.671875 -7.4375 L 3.484375 -7.40625 Z M 3.484375 0 "></path></g></g></g><g fill="#000000" fill-opacity="1"><g transform="translate(15.55338, 17.033069)"><g><path d="M 3.296875 0.15625 C 2.753906 0.15625 2.28125 0.0546875 1.875 -0.140625 C 1.476562 -0.335938 1.171875 -0.628906 0.953125 -1.015625 C 0.742188 -1.398438 0.640625 -1.863281 0.640625 -2.40625 C 0.640625 -2.90625 0.742188 -3.320312 0.953125 -3.65625 C 1.171875 -4 1.503906 -4.28125 1.953125 -4.5 C 2.410156 -4.71875 3 -4.882812 3.71875 -5 C 4.226562 -5.082031 4.613281 -5.171875 4.875 -5.265625 C 5.132812 -5.367188 5.3125 -5.476562 5.40625 -5.59375 C 5.5 -5.71875 5.546875 -5.875 5.546875 -6.0625 C 5.546875 -6.332031 5.453125 -6.539062 5.265625 -6.6875 C 5.078125 -6.832031 4.757812 -6.90625 4.3125 -6.90625 C 3.84375 -6.90625 3.394531 -6.800781 2.96875 -6.59375 C 2.550781 -6.382812 2.1875 -6.109375 1.875 -5.765625 L 1.71875 -5.765625 L 0.828125 -7.09375 C 1.265625 -7.570312 1.789062 -7.941406 2.40625 -8.203125 C 3.019531 -8.472656 3.691406 -8.609375 4.421875 -8.609375 C 5.546875 -8.609375 6.359375 -8.367188 6.859375 -7.890625 C 7.359375 -7.421875 7.609375 -6.75 7.609375 -5.875 L 7.609375 -2.203125 C 7.609375 -1.828125 7.773438 -1.640625 8.109375 -1.640625 C 8.234375 -1.640625 8.359375 -1.660156 8.484375 -1.703125 L 8.59375 -1.671875 L 8.734375 -0.203125 C 8.617188 -0.117188 8.457031 -0.0507812 8.25 0 C 8.039062 0.0390625 7.8125 0.0625 7.5625 0.0625 C 7.050781 0.0625 6.65625 -0.03125 6.375 -0.21875 C 6.09375 -0.414062 5.890625 -0.722656 5.765625 -1.140625 L 5.609375 -1.15625 C 5.191406 -0.28125 4.421875 0.15625 3.296875 0.15625 Z M 3.96875 -1.421875 C 4.457031 -1.421875 4.847656 -1.582031 5.140625 -1.90625 C 5.429688 -2.238281 5.578125 -2.703125 5.578125 -3.296875 L 5.578125 -4.15625 L 5.4375 -4.1875 C 5.3125 -4.082031 5.144531 -3.992188 4.9375 -3.921875 C 4.726562 -3.859375 4.429688 -3.789062 4.046875 -3.71875 C 3.585938 -3.644531 3.253906 -3.515625 3.046875 -3.328125 C 2.847656 -3.140625 2.75 -2.875 2.75 -2.53125 C 2.75 -2.164062 2.851562 -1.890625 3.0625 -1.703125 C 3.28125 -1.515625 3.582031 -1.421875 3.96875 -1.421875 Z M 3.96875 -1.421875 "></path></g></g></g><g fill="#000000" fill-opacity="1"><g transform="translate(24.460681, 17.033069)"><g><path d="M 4.375 3.578125 C 2.988281 3.578125 1.960938 3.375 1.296875 2.96875 C 0.628906 2.5625 0.296875 1.992188 0.296875 1.265625 C 0.296875 0.816406 0.4375 0.453125 0.71875 0.171875 C 1.007812 -0.109375 1.421875 -0.296875 1.953125 -0.390625 L 1.953125 -0.5625 C 1.660156 -0.726562 1.453125 -0.914062 1.328125 -1.125 C 1.203125 -1.34375 1.140625 -1.59375 1.140625 -1.875 C 1.140625 -2.550781 1.582031 -3.007812 2.46875 -3.25 L 2.46875 -3.40625 C 2.007812 -3.664062 1.664062 -3.988281 1.4375 -4.375 C 1.207031 -4.757812 1.09375 -5.226562 1.09375 -5.78125 C 1.09375 -6.34375 1.222656 -6.832031 1.484375 -7.25 C 1.742188 -7.675781 2.117188 -8.007812 2.609375 -8.25 C 3.109375 -8.488281 3.707031 -8.609375 4.40625 -8.609375 C 5.113281 -8.609375 5.675781 -8.484375 6.09375 -8.234375 C 6.351562 -8.617188 6.503906 -9.054688 6.546875 -9.546875 L 6.703125 -9.65625 L 8.234375 -9.28125 C 8.179688 -8.875 8.0625 -8.53125 7.875 -8.25 C 7.6875 -7.976562 7.394531 -7.738281 7 -7.53125 L 7 -7.359375 C 7.46875 -6.941406 7.703125 -6.359375 7.703125 -5.609375 C 7.703125 -5.085938 7.570312 -4.617188 7.3125 -4.203125 C 7.050781 -3.785156 6.671875 -3.457031 6.171875 -3.21875 C 5.679688 -2.976562 5.09375 -2.859375 4.40625 -2.859375 L 4.078125 -2.875 C 3.878906 -2.882812 3.738281 -2.890625 3.65625 -2.890625 C 3.457031 -2.890625 3.300781 -2.835938 3.1875 -2.734375 C 3.082031 -2.628906 3.03125 -2.492188 3.03125 -2.328125 C 3.03125 -2.148438 3.101562 -2.007812 3.25 -1.90625 C 3.394531 -1.8125 3.601562 -1.757812 3.875 -1.75 L 5.765625 -1.671875 C 7.640625 -1.617188 8.578125 -0.816406 8.578125 0.734375 C 8.578125 1.285156 8.4375 1.769531 8.15625 2.1875 C 7.875 2.613281 7.421875 2.953125 6.796875 3.203125 C 6.179688 3.453125 5.375 3.578125 4.375 3.578125 Z M 4.40625 -4.34375 C 4.8125 -4.34375 5.128906 -4.460938 5.359375 -4.703125 C 5.585938 -4.953125 5.703125 -5.296875 5.703125 -5.734375 C 5.703125 -6.179688 5.585938 -6.519531 5.359375 -6.75 C 5.128906 -6.988281 4.8125 -7.109375 4.40625 -7.109375 C 3.988281 -7.109375 3.664062 -6.988281 3.4375 -6.75 C 3.21875 -6.519531 3.109375 -6.179688 3.109375 -5.734375 C 3.109375 -5.285156 3.21875 -4.941406 3.4375 -4.703125 C 3.664062 -4.460938 3.988281 -4.34375 4.40625 -4.34375 Z M 4.375 2.046875 C 5.101562 2.046875 5.628906 1.941406 5.953125 1.734375 C 6.285156 1.535156 6.453125 1.269531 6.453125 0.9375 C 6.453125 0.675781 6.367188 0.484375 6.203125 0.359375 C 6.035156 0.234375 5.769531 0.164062 5.40625 0.15625 L 3.734375 0.078125 C 3.671875 0.078125 3.613281 0.0703125 3.5625 0.0625 C 3.519531 0.0625 3.476562 0.0625 3.4375 0.0625 C 3.070312 0.0625 2.796875 0.132812 2.609375 0.28125 C 2.429688 0.4375 2.34375 0.648438 2.34375 0.921875 C 2.34375 1.285156 2.507812 1.5625 2.84375 1.75 C 3.1875 1.945312 3.695312 2.046875 4.375 2.046875 Z M 4.375 2.046875 "></path></g></g></g><g fill="#000000" fill-opacity="1"><g transform="translate(33.145868, 17.033069)"><g><path d="M 3.296875 0.15625 C 2.753906 0.15625 2.28125 0.0546875 1.875 -0.140625 C 1.476562 -0.335938 1.171875 -0.628906 0.953125 -1.015625 C 0.742188 -1.398438 0.640625 -1.863281 0.640625 -2.40625 C 0.640625 -2.90625 0.742188 -3.320312 0.953125 -3.65625 C 1.171875 -4 1.503906 -4.28125 1.953125 -4.5 C 2.410156 -4.71875 3 -4.882812 3.71875 -5 C 4.226562 -5.082031 4.613281 -5.171875 4.875 -5.265625 C 5.132812 -5.367188 5.3125 -5.476562 5.40625 -5.59375 C 5.5 -5.71875 5.546875 -5.875 5.546875 -6.0625 C 5.546875 -6.332031 5.453125 -6.539062 5.265625 -6.6875 C 5.078125 -6.832031 4.757812 -6.90625 4.3125 -6.90625 C 3.84375 -6.90625 3.394531 -6.800781 2.96875 -6.59375 C 2.550781 -6.382812 2.1875 -6.109375 1.875 -5.765625 L 1.71875 -5.765625 L 0.828125 -7.09375 C 1.265625 -7.570312 1.789062 -7.941406 2.40625 -8.203125 C 3.019531 -8.472656 3.691406 -8.609375 4.421875 -8.609375 C 5.546875 -8.609375 6.359375 -8.367188 6.859375 -7.890625 C 7.359375 -7.421875 7.609375 -6.75 7.609375 -5.875 L 7.609375 -2.203125 C 7.609375 -1.828125 7.773438 -1.640625 8.109375 -1.640625 C 8.234375 -1.640625 8.359375 -1.660156 8.484375 -1.703125 L 8.59375 -1.671875 L 8.734375 -0.203125 C 8.617188 -0.117188 8.457031 -0.0507812 8.25 0 C 8.039062 0.0390625 7.8125 0.0625 7.5625 0.0625 C 7.050781 0.0625 6.65625 -0.03125 6.375 -0.21875 C 6.09375 -0.414062 5.890625 -0.722656 5.765625 -1.140625 L 5.609375 -1.15625 C 5.191406 -0.28125 4.421875 0.15625 3.296875 0.15625 Z M 3.96875 -1.421875 C 4.457031 -1.421875 4.847656 -1.582031 5.140625 -1.90625 C 5.429688 -2.238281 5.578125 -2.703125 5.578125 -3.296875 L 5.578125 -4.15625 L 5.4375 -4.1875 C 5.3125 -4.082031 5.144531 -3.992188 4.9375 -3.921875 C 4.726562 -3.859375 4.429688 -3.789062 4.046875 -3.71875 C 3.585938 -3.644531 3.253906 -3.515625 3.046875 -3.328125 C 2.847656 -3.140625 2.75 -2.875 2.75 -2.53125 C 2.75 -2.164062 2.851562 -1.890625 3.0625 -1.703125 C 3.28125 -1.515625 3.582031 -1.421875 3.96875 -1.421875 Z M 3.96875 -1.421875 "></path></g></g></g><g fill="#000000" fill-opacity="1"><g transform="translate(42.053169, 17.033069)"><g><path d="M 1.21875 0 L 1.21875 -8.453125 L 3.25 -8.453125 L 3.25 -7.203125 L 3.421875 -7.171875 C 3.941406 -8.128906 4.789062 -8.609375 5.96875 -8.609375 C 6.945312 -8.609375 7.664062 -8.34375 8.125 -7.8125 C 8.582031 -7.28125 8.8125 -6.503906 8.8125 -5.484375 L 8.8125 0 L 6.6875 0 L 6.6875 -5.234375 C 6.6875 -5.796875 6.570312 -6.195312 6.34375 -6.4375 C 6.125 -6.6875 5.765625 -6.8125 5.265625 -6.8125 C 4.660156 -6.8125 4.1875 -6.613281 3.84375 -6.21875 C 3.507812 -5.832031 3.34375 -5.21875 3.34375 -4.375 L 3.34375 0 Z M 1.21875 0 "></path></g></g></g><g fill="#000000" fill-opacity="1"><g transform="translate(51.948462, 17.033069)"><g><path d="M 4.375 3.578125 C 2.988281 3.578125 1.960938 3.375 1.296875 2.96875 C 0.628906 2.5625 0.296875 1.992188 0.296875 1.265625 C 0.296875 0.816406 0.4375 0.453125 0.71875 0.171875 C 1.007812 -0.109375 1.421875 -0.296875 1.953125 -0.390625 L 1.953125 -0.5625 C 1.660156 -0.726562 1.453125 -0.914062 1.328125 -1.125 C 1.203125 -1.34375 1.140625 -1.59375 1.140625 -1.875 C 1.140625 -2.550781 1.582031 -3.007812 2.46875 -3.25 L 2.46875 -3.40625 C 2.007812 -3.664062 1.664062 -3.988281 1.4375 -4.375 C 1.207031 -4.757812 1.09375 -5.226562 1.09375 -5.78125 C 1.09375 -6.34375 1.222656 -6.832031 1.484375 -7.25 C 1.742188 -7.675781 2.117188 -8.007812 2.609375 -8.25 C 3.109375 -8.488281 3.707031 -8.609375 4.40625 -8.609375 C 5.113281 -8.609375 5.675781 -8.484375 6.09375 -8.234375 C 6.351562 -8.617188 6.503906 -9.054688 6.546875 -9.546875 L 6.703125 -9.65625 L 8.234375 -9.28125 C 8.179688 -8.875 8.0625 -8.53125 7.875 -8.25 C 7.6875 -7.976562 7.394531 -7.738281 7 -7.53125 L 7 -7.359375 C 7.46875 -6.941406 7.703125 -6.359375 7.703125 -5.609375 C 7.703125 -5.085938 7.570312 -4.617188 7.3125 -4.203125 C 7.050781 -3.785156 6.671875 -3.457031 6.171875 -3.21875 C 5.679688 -2.976562 5.09375 -2.859375 4.40625 -2.859375 L 4.078125 -2.875 C 3.878906 -2.882812 3.738281 -2.890625 3.65625 -2.890625 C 3.457031 -2.890625 3.300781 -2.835938 3.1875 -2.734375 C 3.082031 -2.628906 3.03125 -2.492188 3.03125 -2.328125 C 3.03125 -2.148438 3.101562 -2.007812 3.25 -1.90625 C 3.394531 -1.8125 3.601562 -1.757812 3.875 -1.75 L 5.765625 -1.671875 C 7.640625 -1.617188 8.578125 -0.816406 8.578125 0.734375 C 8.578125 1.285156 8.4375 1.769531 8.15625 2.1875 C 7.875 2.613281 7.421875 2.953125 6.796875 3.203125 C 6.179688 3.453125 5.375 3.578125 4.375 3.578125 Z M 4.40625 -4.34375 C 4.8125 -4.34375 5.128906 -4.460938 5.359375 -4.703125 C 5.585938 -4.953125 5.703125 -5.296875 5.703125 -5.734375 C 5.703125 -6.179688 5.585938 -6.519531 5.359375 -6.75 C 5.128906 -6.988281 4.8125 -7.109375 4.40625 -7.109375 C 3.988281 -7.109375 3.664062 -6.988281 3.4375 -6.75 C 3.21875 -6.519531 3.109375 -6.179688 3.109375 -5.734375 C 3.109375 -5.285156 3.21875 -4.941406 3.4375 -4.703125 C 3.664062 -4.460938 3.988281 -4.34375 4.40625 -4.34375 Z M 4.375 2.046875 C 5.101562 2.046875 5.628906 1.941406 5.953125 1.734375 C 6.285156 1.535156 6.453125 1.269531 6.453125 0.9375 C 6.453125 0.675781 6.367188 0.484375 6.203125 0.359375 C 6.035156 0.234375 5.769531 0.164062 5.40625 0.15625 L 3.734375 0.078125 C 3.671875 0.078125 3.613281 0.0703125 3.5625 0.0625 C 3.519531 0.0625 3.476562 0.0625 3.4375 0.0625 C 3.070312 0.0625 2.796875 0.132812 2.609375 0.28125 C 2.429688 0.4375 2.34375 0.648438 2.34375 0.921875 C 2.34375 1.285156 2.507812 1.5625 2.84375 1.75 C 3.1875 1.945312 3.695312 2.046875 4.375 2.046875 Z M 4.375 2.046875 "></path></g></g></g></g></g><g clip-path="url(#6a0b9cff30)"><g transform="matrix(1, 0, 0, 1, 77, 4)"><g clip-path="url(#2182618d40)"><g fill="#737373" fill-opacity="1"><g transform="translate(0.740101, 14.884737)"><g><path d="M 1.3125 0 L 1.3125 -10.515625 L 2.421875 -10.515625 L 2.421875 -6.4375 L 2.5625 -6.40625 C 3.09375 -7.238281 3.863281 -7.65625 4.875 -7.65625 C 5.78125 -7.65625 6.4375 -7.421875 6.84375 -6.953125 C 7.25 -6.492188 7.453125 -5.785156 7.453125 -4.828125 L 7.453125 0 L 6.34375 0 L 6.34375 -4.796875 C 6.34375 -5.253906 6.285156 -5.617188 6.171875 -5.890625 C 6.054688 -6.171875 5.875 -6.375 5.625 -6.5 C 5.382812 -6.625 5.066406 -6.6875 4.671875 -6.6875 C 3.992188 -6.6875 3.445312 -6.460938 3.03125 -6.015625 C 2.625 -5.578125 2.421875 -4.859375 2.421875 -3.859375 L 2.421875 0 Z M 1.3125 0 "></path></g></g></g><g fill="#737373" fill-opacity="1"><g transform="translate(9.385325, 14.884737)"><g><path d="M 3.703125 0.140625 C 2.859375 0.140625 2.226562 -0.0820312 1.8125 -0.53125 C 1.394531 -0.976562 1.1875 -1.632812 1.1875 -2.5 L 1.1875 -7.5 L 2.296875 -7.5 L 2.296875 -2.53125 C 2.296875 -1.394531 2.832031 -0.828125 3.90625 -0.828125 C 4.582031 -0.828125 5.117188 -1.046875 5.515625 -1.484375 C 5.910156 -1.929688 6.109375 -2.65625 6.109375 -3.65625 L 6.109375 -7.5 L 7.21875 -7.5 L 7.21875 0 L 6.171875 0 L 6.171875 -1.171875 L 6.03125 -1.21875 C 5.769531 -0.757812 5.457031 -0.414062 5.09375 -0.1875 C 4.738281 0.03125 4.273438 0.140625 3.703125 0.140625 Z M 3.703125 0.140625 "></path></g></g></g><g clip-path="url(#c00f4d6451)"><g fill="#737373" fill-opacity="1"><g transform="translate(17.914832, 14.884737)"><g><path d="M 4.984375 0.140625 C 4.429688 0.140625 3.945312 0.0351562 3.53125 -0.171875 C 3.125 -0.390625 2.800781 -0.675781 2.5625 -1.03125 L 2.421875 -1 L 2.421875 0 L 1.3125 0 L 1.3125 -10.515625 L 2.421875 -10.515625 L 2.421875 -6.390625 L 2.5625 -6.359375 C 3.132812 -7.222656 3.960938 -7.65625 5.046875 -7.65625 C 5.660156 -7.65625 6.195312 -7.507812 6.65625 -7.21875 C 7.125 -6.9375 7.484375 -6.503906 7.734375 -5.921875 C 7.992188 -5.335938 8.125 -4.613281 8.125 -3.75 C 8.125 -2.894531 7.988281 -2.175781 7.71875 -1.59375 C 7.457031 -1.007812 7.085938 -0.570312 6.609375 -0.28125 C 6.140625 0 5.597656 0.140625 4.984375 0.140625 Z M 4.71875 -0.84375 C 6.21875 -0.84375 6.96875 -1.8125 6.96875 -3.75 C 6.96875 -4.75 6.769531 -5.484375 6.375 -5.953125 C 5.988281 -6.421875 5.4375 -6.65625 4.71875 -6.65625 C 4.019531 -6.65625 3.460938 -6.414062 3.046875 -5.9375 C 2.628906 -5.457031 2.421875 -4.726562 2.421875 -3.75 C 2.421875 -2.769531 2.628906 -2.039062 3.046875 -1.5625 C 3.460938 -1.082031 4.019531 -0.84375 4.71875 -0.84375 Z M 4.71875 -0.84375 "></path></g></g></g></g></g></g></g><g transform="matrix(1, 0, 0, 1, 81, 20)"><g clip-path="url(#e907e76b54)"><g clip-path="url(#286a74769c)"><g fill="#000000" fill-opacity="1"><g transform="translate(1.09494, 3.641555)"><g><path d="M 1.5 -0.765625 C 1.5 -0.492188 1.4375 -0.289062 1.3125 -0.15625 C 1.195312 -0.03125 1.023438 0.03125 0.796875 0.03125 C 0.578125 0.03125 0.410156 -0.0351562 0.296875 -0.171875 C 0.179688 -0.304688 0.125 -0.503906 0.125 -0.765625 C 0.125 -1.296875 0.351562 -1.5625 0.8125 -1.5625 C 1.039062 -1.5625 1.210938 -1.492188 1.328125 -1.359375 C 1.441406 -1.234375 1.5 -1.035156 1.5 -0.765625 Z M 1.21875 -0.765625 C 1.21875 -0.984375 1.1875 -1.140625 1.125 -1.234375 C 1.0625 -1.328125 0.957031 -1.375 0.8125 -1.375 C 0.664062 -1.375 0.554688 -1.320312 0.484375 -1.21875 C 0.421875 -1.125 0.390625 -0.972656 0.390625 -0.765625 C 0.390625 -0.566406 0.421875 -0.414062 0.484375 -0.3125 C 0.554688 -0.207031 0.660156 -0.15625 0.796875 -0.15625 C 0.953125 -0.15625 1.0625 -0.203125 1.125 -0.296875 C 1.1875 -0.398438 1.21875 -0.554688 1.21875 -0.765625 Z M 1.21875 -0.765625 "></path></g></g><g transform="translate(2.709574, 3.641555)"><g><path d="M 0.203125 0 L 0.203125 -2.109375 L 0.453125 -2.109375 L 0.453125 0 Z M 0.203125 0 "></path></g></g><g transform="translate(3.354577, 3.641555)"><g><path d="M 0.390625 -0.71875 C 0.390625 -0.539062 0.425781 -0.398438 0.5 -0.296875 C 0.570312 -0.203125 0.675781 -0.15625 0.8125 -0.15625 C 0.925781 -0.15625 1.015625 -0.175781 1.078125 -0.21875 C 1.148438 -0.269531 1.195312 -0.332031 1.21875 -0.40625 L 1.453125 -0.328125 C 1.359375 -0.0859375 1.144531 0.03125 0.8125 0.03125 C 0.59375 0.03125 0.421875 -0.0351562 0.296875 -0.171875 C 0.179688 -0.304688 0.125 -0.507812 0.125 -0.78125 C 0.125 -1.03125 0.179688 -1.222656 0.296875 -1.359375 C 0.421875 -1.492188 0.59375 -1.5625 0.8125 -1.5625 C 1.257812 -1.5625 1.484375 -1.289062 1.484375 -0.75 L 1.484375 -0.71875 Z M 1.21875 -0.90625 C 1.207031 -1.070312 1.164062 -1.191406 1.09375 -1.265625 C 1.03125 -1.335938 0.9375 -1.375 0.8125 -1.375 C 0.6875 -1.375 0.585938 -1.332031 0.515625 -1.25 C 0.441406 -1.164062 0.398438 -1.050781 0.390625 -0.90625 Z M 1.21875 -0.90625 "></path></g></g><g transform="translate(4.969211, 3.641555)"><g><path d="M 0.453125 -1.265625 C 0.503906 -1.367188 0.566406 -1.441406 0.640625 -1.484375 C 0.722656 -1.535156 0.820312 -1.5625 0.9375 -1.5625 C 1.101562 -1.5625 1.222656 -1.519531 1.296875 -1.4375 C 1.378906 -1.351562 1.421875 -1.210938 1.421875 -1.015625 L 1.421875 0 L 1.171875 0 L 1.171875 -0.96875 C 1.171875 -1.082031 1.160156 -1.164062 1.140625 -1.21875 C 1.117188 -1.269531 1.082031 -1.304688 1.03125 -1.328125 C 0.988281 -1.347656 0.929688 -1.359375 0.859375 -1.359375 C 0.734375 -1.359375 0.632812 -1.316406 0.5625 -1.234375 C 0.488281 -1.148438 0.453125 -1.039062 0.453125 -0.90625 L 0.453125 0 L 0.203125 0 L 0.203125 -2.109375 L 0.453125 -2.109375 L 0.453125 -1.5625 C 0.453125 -1.5 0.453125 -1.4375 0.453125 -1.375 C 0.453125 -1.3125 0.453125 -1.273438 0.453125 -1.265625 Z M 0.453125 -1.265625 "></path></g></g><g transform="translate(6.583845, 3.641555)"><g></g></g><g transform="translate(7.390454, 3.641555)"><g><path d="M 1.5625 0 L 0.765625 -0.96875 L 0.515625 -0.765625 L 0.515625 0 L 0.234375 0 L 0.234375 -2 L 0.515625 -2 L 0.515625 -1 L 1.46875 -2 L 1.796875 -2 L 0.9375 -1.125 L 1.90625 0 Z M 1.5625 0 "></path></g></g><g transform="translate(9.326881, 3.641555)"><g><path d="M 0.390625 -0.71875 C 0.390625 -0.539062 0.425781 -0.398438 0.5 -0.296875 C 0.570312 -0.203125 0.675781 -0.15625 0.8125 -0.15625 C 0.925781 -0.15625 1.015625 -0.175781 1.078125 -0.21875 C 1.148438 -0.269531 1.195312 -0.332031 1.21875 -0.40625 L 1.453125 -0.328125 C 1.359375 -0.0859375 1.144531 0.03125 0.8125 0.03125 C 0.59375 0.03125 0.421875 -0.0351562 0.296875 -0.171875 C 0.179688 -0.304688 0.125 -0.507812 0.125 -0.78125 C 0.125 -1.03125 0.179688 -1.222656 0.296875 -1.359375 C 0.421875 -1.492188 0.59375 -1.5625 0.8125 -1.5625 C 1.257812 -1.5625 1.484375 -1.289062 1.484375 -0.75 L 1.484375 -0.71875 Z M 1.21875 -0.90625 C 1.207031 -1.070312 1.164062 -1.191406 1.09375 -1.265625 C 1.03125 -1.335938 0.9375 -1.375 0.8125 -1.375 C 0.6875 -1.375 0.585938 -1.332031 0.515625 -1.25 C 0.441406 -1.164062 0.398438 -1.050781 0.390625 -0.90625 Z M 1.21875 -0.90625 "></path></g></g><g transform="translate(10.941515, 3.641555)"><g><path d="M 1.09375 0 L 1.09375 -0.96875 C 1.09375 -1.125 1.070312 -1.226562 1.03125 -1.28125 C 0.988281 -1.332031 0.914062 -1.359375 0.8125 -1.359375 C 0.695312 -1.359375 0.609375 -1.316406 0.546875 -1.234375 C 0.484375 -1.148438 0.453125 -1.035156 0.453125 -0.890625 L 0.453125 0 L 0.203125 0 L 0.203125 -1.203125 C 0.203125 -1.378906 0.195312 -1.488281 0.1875 -1.53125 L 0.4375 -1.53125 C 0.4375 -1.53125 0.4375 -1.519531 0.4375 -1.5 C 0.4375 -1.476562 0.4375 -1.453125 0.4375 -1.421875 C 0.4375 -1.398438 0.441406 -1.347656 0.453125 -1.265625 C 0.503906 -1.378906 0.566406 -1.457031 0.640625 -1.5 C 0.710938 -1.539062 0.796875 -1.5625 0.890625 -1.5625 C 1.015625 -1.5625 1.109375 -1.535156 1.171875 -1.484375 C 1.242188 -1.441406 1.289062 -1.367188 1.3125 -1.265625 C 1.375 -1.367188 1.441406 -1.441406 1.515625 -1.484375 C 1.585938 -1.535156 1.675781 -1.5625 1.78125 -1.5625 C 1.9375 -1.5625 2.050781 -1.519531 2.125 -1.4375 C 2.195312 -1.351562 2.234375 -1.210938 2.234375 -1.015625 L 2.234375 0 L 1.984375 0 L 1.984375 -0.96875 C 1.984375 -1.125 1.960938 -1.226562 1.921875 -1.28125 C 1.878906 -1.332031 1.804688 -1.359375 1.703125 -1.359375 C 1.585938 -1.359375 1.5 -1.316406 1.4375 -1.234375 C 1.375 -1.160156 1.34375 -1.046875 1.34375 -0.890625 L 1.34375 0 Z M 1.09375 0 "></path></g></g><g transform="translate(13.359923, 3.641555)"><g><path d="M 1.171875 0 L 1.171875 -0.96875 C 1.171875 -1.070312 1.160156 -1.148438 1.140625 -1.203125 C 1.117188 -1.265625 1.085938 -1.304688 1.046875 -1.328125 C 1.003906 -1.347656 0.941406 -1.359375 0.859375 -1.359375 C 0.734375 -1.359375 0.632812 -1.316406 0.5625 -1.234375 C 0.488281 -1.148438 0.453125 -1.035156 0.453125 -0.890625 L 0.453125 0 L 0.203125 0 L 0.203125 -1.203125 C 0.203125 -1.378906 0.195312 -1.488281 0.1875 -1.53125 L 0.4375 -1.53125 C 0.4375 -1.53125 0.4375 -1.519531 0.4375 -1.5 C 0.4375 -1.476562 0.4375 -1.453125 0.4375 -1.421875 C 0.4375 -1.398438 0.441406 -1.347656 0.453125 -1.265625 C 0.503906 -1.378906 0.566406 -1.457031 0.640625 -1.5 C 0.722656 -1.539062 0.820312 -1.5625 0.9375 -1.5625 C 1.101562 -1.5625 1.222656 -1.519531 1.296875 -1.4375 C 1.378906 -1.351562 1.421875 -1.210938 1.421875 -1.015625 L 1.421875 0 Z M 1.171875 0 "></path></g></g><g transform="translate(14.974557, 3.641555)"><g><path d="M 0.59375 0.03125 C 0.4375 0.03125 0.316406 -0.0078125 0.234375 -0.09375 C 0.160156 -0.175781 0.125 -0.285156 0.125 -0.421875 C 0.125 -0.585938 0.175781 -0.710938 0.28125 -0.796875 C 0.382812 -0.878906 0.550781 -0.925781 0.78125 -0.9375 L 1.125 -0.9375 L 1.125 -1.015625 C 1.125 -1.140625 1.097656 -1.226562 1.046875 -1.28125 C 0.992188 -1.34375 0.910156 -1.375 0.796875 -1.375 C 0.679688 -1.375 0.597656 -1.351562 0.546875 -1.3125 C 0.492188 -1.269531 0.460938 -1.207031 0.453125 -1.125 L 0.1875 -1.15625 C 0.226562 -1.425781 0.4375 -1.5625 0.8125 -1.5625 C 1 -1.5625 1.140625 -1.515625 1.234375 -1.421875 C 1.335938 -1.335938 1.390625 -1.210938 1.390625 -1.046875 L 1.390625 -0.390625 C 1.390625 -0.304688 1.398438 -0.242188 1.421875 -0.203125 C 1.441406 -0.171875 1.476562 -0.15625 1.53125 -0.15625 C 1.550781 -0.15625 1.578125 -0.160156 1.609375 -0.171875 L 1.609375 -0.015625 C 1.546875 0.00390625 1.484375 0.015625 1.421875 0.015625 C 1.328125 0.015625 1.253906 -0.0078125 1.203125 -0.0625 C 1.160156 -0.113281 1.140625 -0.191406 1.140625 -0.296875 L 1.125 -0.296875 C 1.0625 -0.179688 0.984375 -0.0976562 0.890625 -0.046875 C 0.804688 0.00390625 0.707031 0.03125 0.59375 0.03125 Z M 0.640625 -0.15625 C 0.734375 -0.15625 0.816406 -0.175781 0.890625 -0.21875 C 0.960938 -0.269531 1.019531 -0.332031 1.0625 -0.40625 C 1.101562 -0.476562 1.125 -0.550781 1.125 -0.625 L 1.125 -0.75 L 0.84375 -0.75 C 0.726562 -0.75 0.640625 -0.738281 0.578125 -0.71875 C 0.515625 -0.695312 0.46875 -0.660156 0.4375 -0.609375 C 0.40625 -0.566406 0.390625 -0.503906 0.390625 -0.421875 C 0.390625 -0.335938 0.410156 -0.269531 0.453125 -0.21875 C 0.492188 -0.175781 0.554688 -0.15625 0.640625 -0.15625 Z M 0.640625 -0.15625 "></path></g></g><g transform="translate(16.589191, 3.641555)"><g><path d="M 1.15625 0 L 0.640625 -0.703125 L 0.453125 -0.546875 L 0.453125 0 L 0.203125 0 L 0.203125 -2.109375 L 0.453125 -2.109375 L 0.453125 -0.796875 L 1.125 -1.53125 L 1.421875 -1.53125 L 0.796875 -0.875 L 1.453125 0 Z M 1.15625 0 "></path></g></g><g transform="translate(18.040803, 3.641555)"><g><path d="M 0.390625 -0.71875 C 0.390625 -0.539062 0.425781 -0.398438 0.5 -0.296875 C 0.570312 -0.203125 0.675781 -0.15625 0.8125 -0.15625 C 0.925781 -0.15625 1.015625 -0.175781 1.078125 -0.21875 C 1.148438 -0.269531 1.195312 -0.332031 1.21875 -0.40625 L 1.453125 -0.328125 C 1.359375 -0.0859375 1.144531 0.03125 0.8125 0.03125 C 0.59375 0.03125 0.421875 -0.0351562 0.296875 -0.171875 C 0.179688 -0.304688 0.125 -0.507812 0.125 -0.78125 C 0.125 -1.03125 0.179688 -1.222656 0.296875 -1.359375 C 0.421875 -1.492188 0.59375 -1.5625 0.8125 -1.5625 C 1.257812 -1.5625 1.484375 -1.289062 1.484375 -0.75 L 1.484375 -0.71875 Z M 1.21875 -0.90625 C 1.207031 -1.070312 1.164062 -1.191406 1.09375 -1.265625 C 1.03125 -1.335938 0.9375 -1.375 0.8125 -1.375 C 0.6875 -1.375 0.585938 -1.332031 0.515625 -1.25 C 0.441406 -1.164062 0.398438 -1.050781 0.390625 -0.90625 Z M 1.21875 -0.90625 "></path></g></g><g transform="translate(19.655437, 3.641555)"><g><path d="M 0.203125 0 L 0.203125 -1.171875 C 0.203125 -1.285156 0.195312 -1.40625 0.1875 -1.53125 L 0.4375 -1.53125 C 0.445312 -1.363281 0.453125 -1.257812 0.453125 -1.21875 C 0.492188 -1.351562 0.539062 -1.441406 0.59375 -1.484375 C 0.644531 -1.535156 0.71875 -1.5625 0.8125 -1.5625 C 0.84375 -1.5625 0.878906 -1.554688 0.921875 -1.546875 L 0.921875 -1.3125 C 0.890625 -1.320312 0.84375 -1.328125 0.78125 -1.328125 C 0.675781 -1.328125 0.59375 -1.28125 0.53125 -1.1875 C 0.476562 -1.101562 0.453125 -0.972656 0.453125 -0.796875 L 0.453125 0 Z M 0.203125 0 "></path></g></g></g></g></g></g></svg>